<svg width="21" height="20" viewBox="0 0 21 20" fill="none" xmlns="http://www.w3.org/2000/svg">
<path d="M14.6667 1.66666C15.3298 1.66666 15.9657 1.93005 16.4345 2.39889C16.9034 2.86773 17.1667 3.50362 17.1667 4.16666V6.66666H3.83341V4.16666C3.83341 3.50362 4.09681 2.86773 4.56565 2.39889C5.03449 1.93005 5.67037 1.66666 6.33342 1.66666H14.6667ZM18.0001 8.33332C18.2211 8.33332 18.4331 8.42112 18.5893 8.5774C18.7456 8.73368 18.8334 8.94564 18.8334 9.16666C18.8334 9.38767 18.7456 9.59963 18.5893 9.75591C18.4331 9.91219 18.2211 9.99999 18.0001 9.99999H3.00008C2.77907 9.99999 2.56711 9.91219 2.41083 9.75591C2.25455 9.59963 2.16675 9.38767 2.16675 9.16666C2.16675 8.94564 2.25455 8.73368 2.41083 8.5774C2.56711 8.42112 2.77907 8.33332 3.00008 8.33332H18.0001ZM3.83341 11.6667V14.1667C3.83341 14.8297 4.09681 15.4656 4.56565 15.9344C5.03449 16.4033 5.67037 16.6667 6.33342 16.6667H14.6667C15.3298 16.6667 15.9657 16.4033 16.4345 15.9344C16.9034 15.4656 17.1667 14.8297 17.1667 14.1667V11.6667H3.83341Z" fill="black"/>
</svg>
